HIERARCHY
ROOT Hips
{
	OFFSET 50.460899 -19.001415 96.010002
	CHANNELS 6 Xposition Yposition Zposition Xrotation Yrotation Zrotation
	JOINT spine
	{
		OFFSET 0.000000 -0.467661 8.132492
		CHANNELS 3 Xrotation Yrotation Zrotation
		JOINT spine1
		{
			OFFSET 0.000000 -0.000002 10.349800
			CHANNELS 3 Xrotation Yrotation Zrotation
			JOINT spine2
			{
				OFFSET 0.000000 -0.000002 9.916992
				CHANNELS 3 Xrotation Yrotation Zrotation
				JOINT Neck
				{
					OFFSET 0.000000 -1.213903 25.460999
					CHANNELS 3 Xrotation Yrotation Zrotation
					JOINT Head
					{
						OFFSET 0.000000 0.000000 7.692444
						CHANNELS 3 Xrotation Yrotation Zrotation
						End Site
						{
							OFFSET 0.000000 6.140626 18.619995
						}
					}
				}
				JOINT RightShoulder
				{
					OFFSET -4.175751 0.581444 10.709595
					CHANNELS 3 Xrotation Yrotation Zrotation
					JOINT RightArm
					{
						OFFSET 0.000000 -0.000002 14.046600
						CHANNELS 3 Xrotation Yrotation Zrotation
						JOINT RightArmRoll
						{
							OFFSET 0.000000 0.000000 7.090988
							CHANNELS 3 Xrotation Yrotation Zrotation
							JOINT RightForeArm
							{
								OFFSET 0.000000 -0.000004 20.653503
								CHANNELS 3 Xrotation Yrotation Zrotation
								JOINT RightForeArmRoll
								{
									OFFSET 0.000000 -0.000002 7.957184
									CHANNELS 3 Xrotation Yrotation Zrotation
									JOINT RightHand
									{
										OFFSET 0.000000 -0.000002 15.968292
										CHANNELS 3 Xrotation Yrotation Zrotation
										End Site
										{
											OFFSET 0.000000 0.000000 0.100006
										}
									}
								}
							}
						}
					}
				}
				JOINT LeftShoulder
				{
					OFFSET 4.175751 0.581444 10.709595
					CHANNELS 3 Xrotation Yrotation Zrotation
					JOINT LeftArm
					{
						OFFSET 0.000000 -0.000002 14.046600
						CHANNELS 3 Xrotation Yrotation Zrotation
						JOINT LeftArmRoll
						{
							OFFSET 0.000000 0.000000 7.090973
							CHANNELS 3 Xrotation Yrotation Zrotation
							JOINT LeftForeArm
							{
								OFFSET 0.000000 -0.000004 20.653503
								CHANNELS 3 Xrotation Yrotation Zrotation
								JOINT LeftForeArmRoll
								{
									OFFSET 0.000000 -0.000002 7.957184
									CHANNELS 3 Xrotation Yrotation Zrotation
									JOINT LeftHand
									{
										OFFSET 0.000000 -0.000002 15.968307
										CHANNELS 3 Xrotation Yrotation Zrotation
										End Site
										{
											OFFSET 0.000000 0.000000 0.100006
										}
									}
								}
							}
						}
					}
				}
			}
		}
	}
	JOINT RightUpLeg
	{
		OFFSET -7.208340 1.108841 -1.321823
		CHANNELS 3 Xrotation Yrotation Zrotation
		JOINT RightUpLegRoll
		{
			OFFSET 0.000000 -0.000004 18.723801
			CHANNELS 3 Xrotation Yrotation Zrotation
			JOINT RightLeg
			{
				OFFSET 0.000000 0.000004 -23.186600
				CHANNELS 3 Xrotation Yrotation Zrotation
				JOINT RightLegRoll
				{
					OFFSET 0.000000 -0.000004 23.262398
					CHANNELS 3 Xrotation Yrotation Zrotation
					JOINT RightFoot
					{
						OFFSET 0.000000 -0.000002 19.362106
						CHANNELS 3 Xrotation Yrotation Zrotation
						JOINT RightToeBase
						{
							OFFSET 0.000000 -0.000004 16.185699
							CHANNELS 3 Xrotation Yrotation Zrotation
							End Site
							{
								OFFSET 0.006859 0.903522 7.838623
							}
						}
					}
				}
			}
		}
	}
	JOINT LeftUpLeg
	{
		OFFSET 7.208340 1.108841 -1.321823
		CHANNELS 3 Xrotation Yrotation Zrotation
		JOINT LeftUpLegRoll
		{
			OFFSET 0.000000 -0.000004 18.723900
			CHANNELS 3 Xrotation Yrotation Zrotation
			JOINT LeftLeg
			{
				OFFSET 0.000000 -0.000004 23.186493
				CHANNELS 3 Xrotation Yrotation Zrotation
				JOINT LeftLegRoll
				{
					OFFSET 0.000000 -0.000004 23.477509
					CHANNELS 3 Xrotation Yrotation Zrotation
					JOINT LeftFoot
					{
						OFFSET 0.000000 -0.000002 19.147003
						CHANNELS 3 Xrotation Yrotation Zrotation
						JOINT LeftToeBase
						{
							OFFSET 0.000000 -0.000004 16.185699
							CHANNELS 3 Xrotation Yrotation Zrotation
							End Site
							{
								OFFSET -0.030746 0.903522 7.838623
							}
						}
					}
				}
			}
		}
	}
}
MOTION
Frames: 9
Frame Time: 0.041667
53.238205 -21.748819 103.520988 4.873626 -1.717740 -1.796786 0.623720 -0.420118 0.348529 5.252946 -0.832668 0.705498 6.898046 -0.824158 0.715423 -4.341931 6.021914 -5.228327 -0.584643 -2.084100 -6.272712 -19.048962 -44.703113 -22.546448 20.688868 -107.858966 -4.864562 -0.000005 -0.000001 -0.000002 55.847937 -14.563671 10.314454 -0.000002 0.000001 -3.009170 -5.000223 -7.998981 0.000131 -11.265456 53.525682 13.018447 6.111883 110.240783 20.193623 -0.000013 0.000003 0.000009 43.476203 10.400953 -8.264362 -0.000001 -0.000006 2.999998 -5.000241 7.998841 -0.000156 -15.264761 -174.503697 0.672886 -179.999991 0.000005 -0.931004 164.054751 -0.972108 -0.674734 -0.000004 -0.000000 0.133326 67.429021 6.836442 2.371912 25.391694 -7.355584 -0.056638 -12.590548 177.229161 1.560410 -0.000005 -0.000005 -0.869155 -15.226764 2.138848 0.676180 0.000005 -0.000003 -0.217924 69.881243 -6.760342 -2.410307 25.456856 7.355619 0.000002 
53.271805 -21.740017 103.188995 4.979181 -1.731993 -1.785628 0.621484 -0.419390 0.337650 5.248413 -0.831442 0.683715 6.893522 -0.823195 0.693626 -4.348907 6.128208 -5.197965 -0.717413 -2.174328 -6.257351 -19.005020 -44.744924 -22.490973 19.523220 -108.003548 -5.327676 -0.000004 -0.000002 -0.000003 55.090800 -14.884288 10.294256 -0.000004 -0.000000 -3.009169 -5.000221 -7.998980 0.000131 -11.304632 53.616008 13.070614 5.203841 110.277810 20.590543 -0.000010 0.000004 0.000008 42.745260 10.691874 -8.208803 -0.000000 -0.000006 2.999998 -5.000242 7.998840 -0.000154 -15.564772 -174.495200 0.689321 -179.999991 0.000005 -0.932001 163.589492 -1.007234 -0.696626 -0.000004 -0.000000 0.142045 67.441295 6.833948 2.378153 25.454027 -7.355617 -0.002484 -12.912992 177.216116 1.501590 -0.000005 -0.000004 -0.867627 -15.648546 2.210839 0.693384 0.000005 -0.000004 -0.222280 69.872712 -6.760787 -2.409906 25.456853 7.355619 0.000001 
53.263504 -21.710918 102.833984 5.084670 -1.732669 -1.779364 0.620345 -0.416733 0.325064 5.246047 -0.826389 0.658491 6.891154 -0.818443 0.668344 -4.373478 6.167148 -5.162726 -0.845473 -2.223366 -6.229355 -18.956113 -44.833529 -22.429556 18.365477 -108.122926 -5.798706 -0.000005 -0.000005 -0.000002 54.343925 -15.184026 10.259555 -0.000004 0.000000 -3.009180 -5.000225 -7.998981 0.000131 -11.370228 53.633675 13.151804 4.275227 110.379067 21.012949 -0.000010 0.000006 0.000006 42.003242 10.972867 -8.142874 -0.000000 -0.000006 2.999996 -5.000241 7.998839 -0.000156 -15.863514 -174.504189 0.706685 -179.999991 0.000005 -0.932998 163.097896 -1.047707 -0.720345 -0.000004 -0.000000 0.150071 67.427539 6.832004 2.385417 25.532813 -7.355494 0.070012 -13.248768 177.184833 1.418827 -0.000004 -0.000005 -0.866184 -16.126816 2.297264 0.714857 0.000006 -0.000003 -0.226381 69.849421 -6.762022 -2.408845 25.446046 7.355621 0.003683 
53.286903 -21.677618 102.505981 5.192752 -1.721211 -1.777461 0.619752 -0.411990 0.310321 5.244764 -0.817206 0.628916 6.889868 -0.809616 0.638660 -4.416157 6.146496 -5.120741 -0.967152 -2.239229 -6.187751 -18.900269 -44.964665 -22.359691 17.201365 -108.223541 -6.284685 -0.000005 0.000000 -0.000003 53.594561 -15.464940 10.212124 -0.000005 0.000001 -3.009181 -5.000221 -7.998981 0.000133 -11.464239 53.581345 13.264527 3.330023 110.545799 21.450651 -0.000009 0.000006 0.000008 41.239729 11.243931 -8.066202 -0.000000 -0.000007 2.999999 -5.000241 7.998838 -0.000155 -16.160383 -174.529611 0.726602 -179.999991 0.000005 -0.933995 162.583528 -1.093478 -0.747995 -0.000004 -0.000001 0.156530 67.369926 6.831266 2.393944 25.626122 -7.355099 0.162814 -13.598327 177.133525 1.312182 -0.000006 -0.000005 -0.864794 -16.656151 2.401075 0.742213 0.000005 -0.000004 -0.229490 69.795251 -6.764543 -2.407499 25.414830 7.355610 0.014299 
53.269707 -21.651623 102.143990 5.302981 -1.699270 -1.779428 0.619685 -0.405504 0.293765 5.244509 -0.804576 0.595687 6.889618 -0.797384 0.605282 -4.474465 6.074906 -5.073268 -1.083909 -2.226730 -6.134470 -18.838323 -45.132111 -22.282203 16.029930 -108.308939 -6.786505 -0.000004 -0.000001 -0.000003 52.843726 -15.727873 10.152861 -0.000006 0.000000 -3.009179 -5.000222 -7.998979 0.000131 -11.581542 53.469190 13.402989 2.380019 110.767391 21.892752 -0.000009 0.000003 0.000009 40.459291 11.504941 -7.979589 0.000002 -0.000006 3.000001 -5.000241 7.998837 -0.000156 -16.457131 -174.569499 0.749008 -179.999991 0.000005 -0.936003 162.046197 -1.144432 -0.778803 -0.000004 -0.000000 0.161858 67.278026 6.831442 2.403486 25.732652 -7.354289 0.273075 -13.961069 177.065155 1.184994 -0.000004 -0.000005 -0.863454 -17.233279 2.519498 0.775515 0.000006 -0.000003 -0.231913 69.717448 -6.768174 -2.405593 25.367859 7.355584 0.030282 
53.301704 -21.610220 101.781990 5.414893 -1.668495 -1.784756 0.620113 -0.397622 0.275744 5.245228 -0.789182 0.559504 6.890347 -0.782423 0.568918 -4.545996 5.961041 -5.021615 -1.197205 -2.190679 -6.071470 -18.770799 -45.329466 -22.197679 14.851848 -108.381708 -7.303442 -0.000004 -0.000001 -0.000003 52.092753 -15.973618 10.082662 -0.000001 0.000001 -3.009189 -5.000221 -7.998980 0.000131 -11.717074 53.307697 13.561441 1.434508 111.037019 22.330462 -0.000010 0.000005 0.000009 39.666911 11.755644 -7.883931 0.000001 -0.000006 3.000000 -5.000241 7.998839 -0.000155 -16.755402 -174.621955 0.773797 -179.999991 0.000005 -0.938996 161.485507 -1.198602 -0.812343 -0.000004 -0.000000 0.166489 67.161428 6.832198 2.413878 25.851074 -7.352926 0.397909 -14.336400 176.981826 1.040795 -0.000005 -0.000004 -0.862162 -17.854734 2.649785 0.814774 0.000004 -0.000004 -0.233951 69.623315 -6.772552 -2.403527 25.309771 7.355521 0.050033 
53.299805 -21.584417 101.419991 5.528037 -1.630535 -1.792954 0.621017 -0.388687 0.256604 5.246875 -0.771707 0.521068 6.891995 -0.765411 0.530275 -4.628265 5.813579 -4.967110 -1.308488 -2.135851 -6.000804 -18.698370 -45.550426 -22.106858 13.666295 -108.447292 -7.836411 -0.000003 -0.000000 -0.000003 51.343014 -16.203039 10.002520 -0.000003 0.000001 -3.009188 -5.000223 -7.998981 0.000130 -11.865748 53.107166 13.734119 0.501273 111.344740 22.757101 -0.000011 0.000003 0.000009 38.867328 11.996032 -7.780282 0.000001 -0.000006 2.999998 -5.000238 7.998839 -0.000155 -17.057001 -174.683140 0.800232 -179.999991 0.000005 -0.942001 160.901034 -1.255868 -0.848815 -0.000003 0.000000 0.170859 67.029871 6.833192 2.425154 25.980049 -7.350906 0.534441 -14.723624 176.885521 0.883105 -0.000004 -0.000005 -0.860916 -18.517230 2.789166 0.859915 0.000006 -0.000003 -0.235912 69.520090 -6.777444 -2.401019 25.245224 7.355427 0.071978 
53.333702 -21.563917 101.052994 5.641941 -1.587058 -1.803475 0.622364 -0.379048 0.236693 5.249413 -0.752836 0.481078 6.894536 -0.747020 0.490063 -4.718874 5.641204 -4.911019 -1.419224 -2.067024 -5.924531 -18.621876 -45.788652 -22.010599 12.475236 -108.509207 -8.383250 -0.000002 -0.000001 -0.000003 50.595623 -16.416908 9.913017 -0.000002 0.000002 -3.009199 -5.000219 -7.998979 0.000132 -12.022642 52.877883 13.915449 -0.414038 111.680519 23.167933 -0.000008 0.000003 0.000011 38.065508 12.225847 -7.669613 0.000002 -0.000006 2.999999 -5.000240 7.998841 -0.000155 -17.363640 -174.753013 0.828720 -179.999991 0.000005 -0.945006 160.292300 -1.314262 -0.886716 -0.000003 -0.000000 0.175402 66.892844 6.834207 2.436683 26.118380 -7.348118 0.679802 -15.122157 176.778314 0.715402 -0.000004 -0.000005 -0.859713 -19.217190 2.934881 0.910739 0.000005 -0.000003 -0.238098 69.414973 -6.782585 -2.398384 25.178943 7.355274 0.094507 
53.306404 -21.526016 100.666992 5.756155 -1.539681 -1.815804 0.624132 -0.369046 0.216359 5.252781 -0.733254 0.440235 6.897909 -0.727929 0.448988 -4.815356 5.452601 -4.854592 -1.530874 -1.988968 -5.844735 -18.541795 -46.037640 -21.909509 11.281349 -108.570863 -8.941115 -0.000004 -0.000000 -0.000002 49.852202 -16.616173 9.815206 -0.000002 0.000001 -3.009201 -5.000220 -7.998979 0.000131 -12.183129 52.630456 14.100228 -1.307561 112.038188 23.560143 -0.000009 0.000004 0.000008 37.266216 12.445118 -7.553068 0.000001 -0.000006 2.999999 -5.000240 7.998839 -0.000154 -17.677146 -174.826861 0.858158 -179.999991 0.000005 -0.948995 159.659101 -1.372747 -0.927846 -0.000004 -0.000000 0.180557 66.760140 6.834803 2.448562 26.264734 -7.344510 0.831140 -15.531500 176.662201 0.541158 -0.000003 -0.000005 -0.858552 -19.951324 3.084203 0.966935 0.000005 -0.000003 -0.240814 69.315355 -6.787648 -2.395408 25.115604 7.355090 0.116053 
